<?xml version="1.0" encoding="UTF-8"?>
<svg width="245px" height="92px" viewBox="0 0 245 92" version="1.1" xmlns="http://www.w3.org/2000/svg" xmlns:xlink="http://www.w3.org/1999/xlink">
    <!-- Generator: Sketch 47.1 (45422) - http://www.bohemiancoding.com/sketch -->
    <title>Group 6</title>
    <desc>Created with Sketch.</desc>
    <defs></defs>
    <g id="Page-1" stroke="none" stroke-width="1" fill="none" fill-rule="evenodd">
        <g id="Dashboard---ON---Right-Panel-In-Copy" transform="translate(-403.000000, -842.000000)">
            <g id="DashboardSummary-New-V4" transform="translate(225.000000, 138.000000)">
                <g id="Box---New" transform="translate(0.000000, 170.000000)">
                    <g id="New-Sub-Box-Bottom" transform="translate(77.000000, 426.000000)">
                        <g id="Aging" transform="translate(0.000000, 108.000000)">
                            <g id="Group-6" transform="translate(101.000000, 0.000000)">
                                <g id="Info-3---Aging" transform="translate(182.000000, 81.000000)" fill="#7D7D7D">
                                    <path d="M4.54,4.9766 C4.163,4.9766 3.831,5.0516 3.536,5.1996 C3.241,5.3466 2.994,5.5496 2.799,5.8026 L2.679,6.5646 C2.531,7.4696 2.579,8.1486 2.822,8.6016 C3.062,9.0576 3.436,9.2846 3.934,9.2846 C4.362,9.2846 4.739,9.0676 5.061,8.6316 C5.388,8.2006 5.603,7.6756 5.706,7.0586 C5.806,6.4206 5.751,5.9136 5.549,5.5386 C5.343,5.1626 5.007,4.9766 4.54,4.9766 M5.792,0.0766 C6.125,0.0766 6.447,0.1146 6.759,0.1936 C7.067,0.2726 7.335,0.3716 7.555,0.5016 L7.033,1.8296 C6.817,1.7156 6.598,1.6266 6.375,1.5616 C6.155,1.4996 5.888,1.4686 5.579,1.4686 C4.976,1.4686 4.437,1.7296 3.965,2.2506 C3.491,2.7756 3.196,3.4646 3.08,4.3186 L3.101,4.3566 C3.361,4.1326 3.67,3.9576 4.029,3.8306 C4.39,3.7046 4.77,3.6426 5.175,3.6426 C5.994,3.6426 6.608,3.9646 7.019,4.6176 C7.428,5.2646 7.555,6.0806 7.4,7.0586 C7.226,8.1526 6.804,9.0236 6.132,9.6746 C5.463,10.3266 4.657,10.6526 3.714,10.6526 C2.768,10.6526 2.03,10.2856 1.499,9.5436 C0.968,8.8076 0.803,7.7826 1.012,6.4716 L1.327,4.5106 C1.551,3.1226 2.075,2.0346 2.905,1.2526 C3.738,0.4676 4.698,0.0766 5.792,0.0766" id="Fill-629"></path>
                                    <path d="M13.8613,3.9307 C14.0393,3.0357 14.0433,2.4017 13.8753,2.0207 C13.7073,1.6437 13.3773,1.4517 12.8863,1.4517 C12.4373,1.4517 12.0443,1.6607 11.6973,2.0767 C11.3503,2.4877 11.0933,3.1077 10.9283,3.9307 L10.3593,6.7907 C10.1743,7.6967 10.1713,8.3367 10.3453,8.7147 C10.5173,9.0947 10.8503,9.2847 11.3403,9.2847 C11.7863,9.2847 12.1803,9.0777 12.5233,8.6667 C12.8633,8.2547 13.1203,7.6277 13.2883,6.7907 L13.8613,3.9307 Z M15.0273,6.5437 C14.7393,7.9707 14.2553,9.0127 13.5693,9.6677 C12.8863,10.3267 12.0533,10.6527 11.0663,10.6527 C10.1573,10.6527 9.4713,10.2947 9.0113,9.5817 C8.5553,8.8687 8.4573,7.8577 8.7203,6.5437 L9.1933,4.1917 C9.4743,2.7717 9.9593,1.7297 10.6443,1.0677 C11.3303,0.4057 12.1673,0.0767 13.1613,0.0767 C14.0703,0.0767 14.7533,0.4367 15.2053,1.1537 C15.6613,1.8697 15.7573,2.8847 15.5003,4.1917 L15.0273,6.5437 Z" id="Fill-630"></path>
                                    <polygon id="Fill-631" points="19.6563 6.8252 16.1823 6.8252 16.4603 5.4432 19.9333 5.4432"></polygon>
                                    <polygon id="Fill-632" points="24.3506 10.5049 22.6636 10.5049 24.3506 2.0689 22.2066 2.0689 22.4406 0.9029 26.4086 0.2239"></polygon>
                                    <path d="M34.4287,10.5049 L28.0307,10.5049 L28.2227,9.3249 L31.9147,5.6769 C32.5087,5.0829 32.9267,4.5929 33.1777,4.2049 C33.4277,3.8209 33.5817,3.4439 33.6437,3.0769 C33.7187,2.6009 33.6637,2.2129 33.4757,1.9069 C33.2867,1.6059 32.9897,1.4509 32.5837,1.4509 C32.0627,1.4509 31.6377,1.6229 31.3117,1.9659 C30.9827,2.3059 30.7737,2.7719 30.6847,3.3589 L29.0627,3.3589 L29.0487,3.3179 C29.1757,2.3709 29.5737,1.5959 30.2487,0.9879 C30.9207,0.3819 31.7717,0.0759 32.8037,0.0759 C33.6987,0.0759 34.3807,0.3509 34.8477,0.9029 C35.3177,1.4509 35.4787,2.1649 35.3377,3.0359 C35.2387,3.6469 34.9977,4.2119 34.6167,4.7299 C34.2377,5.2479 33.6547,5.8959 32.8687,6.6779 L30.3967,9.0919 L30.4097,9.1369 L34.6447,9.1369 L34.4287,10.5049 Z" id="Fill-633"></path>
                                    <path d="M41.5654,3.9307 C41.7434,3.0357 41.7504,2.4017 41.5794,2.0207 C41.4114,1.6437 41.0824,1.4517 40.5904,1.4517 C40.1454,1.4517 39.7484,1.6607 39.4014,2.0767 C39.0544,2.4877 38.8004,3.1077 38.6364,3.9307 L38.0634,6.7907 C37.8784,7.6967 37.8754,8.3367 38.0494,8.7147 C38.2244,9.0947 38.5544,9.2847 39.0444,9.2847 C39.4944,9.2847 39.8844,9.0777 40.2274,8.6667 C40.5674,8.2547 40.8244,7.6277 40.9924,6.7907 L41.5654,3.9307 Z M42.7314,6.5437 C42.4434,7.9707 41.9604,9.0127 41.2774,9.6677 C40.5944,10.3267 39.7574,10.6527 38.7704,10.6527 C37.8614,10.6527 37.1794,10.2947 36.7194,9.5817 C36.2594,8.8687 36.1614,7.8577 36.4244,6.5437 L36.8984,4.1917 C37.1824,2.7717 37.6664,1.7297 38.3484,1.0677 C39.0344,0.4057 39.8754,0.0767 40.8654,0.0767 C41.7744,0.0767 42.4574,0.4367 42.9094,1.1537 C43.3654,1.8697 43.4614,2.8847 43.2044,4.1917 L42.7314,6.5437 Z" id="Fill-634"></path>
                                </g>
                                <g id="Info-2---Aging" transform="translate(94.000000, 81.000000)" fill="#7D7D7D">
                                    <path d="M2.498,5.5498 L2.591,4.9898 L2.652,4.5888 L3.791,4.5888 C4.265,4.5888 4.635,4.4478 4.902,4.1708 C5.166,3.8938 5.341,3.5058 5.42,3.0048 C5.502,2.4968 5.444,2.1128 5.255,1.8498 C5.063,1.5848 4.741,1.4508 4.285,1.4508 C3.887,1.4508 3.534,1.5888 3.222,1.8568 C2.91,2.1238 2.718,2.4738 2.652,2.9028 L1.03,2.9028 L1.014,2.8578 C1.123,2.0378 1.5,1.3688 2.152,0.8518 C2.8,0.3338 3.578,0.0758 4.48,0.0758 C5.386,0.0758 6.085,0.3338 6.582,0.8448 C7.08,1.3598 7.255,2.0788 7.107,3.0048 C7.031,3.4648 6.84,3.8968 6.524,4.3008 C6.212,4.7088 5.808,5.0248 5.307,5.2438 C5.808,5.4528 6.15,5.7688 6.343,6.1908 C6.531,6.6158 6.589,7.0928 6.507,7.6238 C6.35,8.6048 5.928,9.3528 5.245,9.8738 C4.562,10.3918 3.743,10.6528 2.786,10.6528 C1.926,10.6528 1.229,10.3988 0.694,9.8908 C0.159,9.3828 -0.025,8.6808 0.139,7.7848 L0.152,7.7508 L1.792,7.7508 C1.717,8.2278 1.788,8.6018 2.012,8.8718 C2.23,9.1468 2.57,9.2838 3.026,9.2838 C3.478,9.2838 3.87,9.1398 4.195,8.8488 C4.521,8.5608 4.727,8.1528 4.812,7.6308 C4.909,7.0248 4.857,6.5888 4.662,6.3278 C4.467,6.0678 4.106,5.9368 3.578,5.9368 L2.44,5.9368 L2.498,5.5498 Z" id="Fill-624"></path>
                                    <polygon id="Fill-625" points="11.6475 10.5049 9.9605 10.5049 11.6475 2.0689 9.5005 2.0689 9.7335 0.9029 13.7015 0.2239"></polygon>
                                    <polygon id="Fill-626" points="19.209 6.8252 15.734 6.8252 16.013 5.4432 19.486 5.4432"></polygon>
                                    <path d="M24.0605,4.9766 C23.6835,4.9766 23.3475,5.0516 23.0525,5.1996 C22.7605,5.3466 22.5145,5.5496 22.3155,5.8026 L22.1955,6.5646 C22.0515,7.4696 22.0995,8.1486 22.3385,8.6016 C22.5825,9.0576 22.9535,9.2846 23.4545,9.2846 C23.8825,9.2846 24.2555,9.0676 24.5815,8.6316 C24.9085,8.2006 25.1205,7.6756 25.2235,7.0586 C25.3235,6.4206 25.2715,5.9136 25.0655,5.5386 C24.8595,5.1626 24.5275,4.9766 24.0605,4.9766 M25.3085,0.0766 C25.6445,0.0766 25.9675,0.1146 26.2765,0.1936 C26.5875,0.2726 26.8525,0.3716 27.0755,0.5016 L26.5535,1.8296 C26.3335,1.7156 26.1185,1.6266 25.8955,1.5616 C25.6755,1.4996 25.4085,1.4686 25.0965,1.4686 C24.4965,1.4686 23.9575,1.7296 23.4845,2.2506 C23.0115,2.7756 22.7165,3.4646 22.5995,4.3186 L22.6205,4.3566 C22.8775,4.1326 23.1865,3.9576 23.5465,3.8306 C23.9065,3.7046 24.2895,3.6426 24.6955,3.6426 C25.5145,3.6426 26.1285,3.9646 26.5365,4.6176 C26.9485,5.2646 27.0755,6.0806 26.9205,7.0586 C26.7465,8.1526 26.3245,9.0236 25.6525,9.6746 C24.9795,10.3266 24.1735,10.6526 23.2345,10.6526 C22.2885,10.6526 21.5465,10.2856 21.0155,9.5436 C20.4845,8.8076 20.3235,7.7826 20.5285,6.4716 L20.8475,4.5106 C21.0675,3.1226 21.5955,2.0346 22.4245,1.2526 C23.2545,0.4676 24.2185,0.0766 25.3085,0.0766" id="Fill-627"></path>
                                    <path d="M33.3809,3.9307 C33.5599,3.0357 33.5639,2.4017 33.3949,2.0207 C33.2239,1.6437 32.8949,1.4517 32.4039,1.4517 C31.9579,1.4517 31.5609,1.6607 31.2139,2.0767 C30.8709,2.4877 30.6139,3.1077 30.4489,3.9307 L29.8769,6.7907 C29.6949,7.6967 29.6889,8.3367 29.8629,8.7147 C30.0379,9.0947 30.3699,9.2847 30.8599,9.2847 C31.3069,9.2847 31.7009,9.0777 32.0399,8.6667 C32.3839,8.2547 32.6369,7.6277 32.8089,6.7907 L33.3809,3.9307 Z M34.5439,6.5437 C34.2589,7.9707 33.7729,9.0127 33.0899,9.6677 C32.4069,10.3267 31.5699,10.6527 30.5829,10.6527 C29.6749,10.6527 28.9919,10.2947 28.5319,9.5817 C28.0729,8.8687 27.9769,7.8577 28.2409,6.5437 L28.7139,4.1917 C28.9949,2.7717 29.4789,1.7297 30.1649,1.0677 C30.8469,0.4057 31.6879,0.0767 32.6819,0.0767 C33.5909,0.0767 34.2699,0.4367 34.7259,1.1537 C35.1779,1.8697 35.2769,2.8847 35.0169,4.1917 L34.5439,6.5437 Z" id="Fill-628"></path>
                                </g>
                                <g id="Info-1---Aging" transform="translate(26.000000, 81.000000)" fill="#7D7D7D">
                                    <path d="M5.7227,3.9307 C5.9007,3.0357 5.9047,2.4017 5.7367,2.0207 C5.5647,1.6437 5.2357,1.4517 4.7447,1.4517 C4.2987,1.4517 3.9017,1.6607 3.5547,2.0767 C3.2117,2.4877 2.9547,3.1077 2.7897,3.9307 L2.2177,6.7907 C2.0357,7.6967 2.0297,8.3367 2.2037,8.7147 C2.3787,9.0947 2.7117,9.2847 3.2017,9.2847 C3.6477,9.2847 4.0417,9.0777 4.3817,8.6667 C4.7247,8.2547 4.9787,7.6277 5.1497,6.7907 L5.7227,3.9307 Z M6.8847,6.5437 C6.6007,7.9707 6.1137,9.0127 5.4307,9.6677 C4.7487,10.3267 3.9117,10.6527 2.9237,10.6527 C2.0157,10.6527 1.3327,10.2947 0.8737,9.5817 C0.4137,8.8687 0.3187,7.8577 0.5817,6.5437 L1.0557,4.1917 C1.3367,2.7717 1.8207,1.7297 2.5057,1.0677 C3.1887,0.4057 4.0287,0.0767 5.0227,0.0767 C5.9317,0.0767 6.6107,0.4367 7.0667,1.1537 C7.5197,1.8697 7.6187,2.8847 7.3587,4.1917 L6.8847,6.5437 Z" id="Fill-620"></path>
                                    <polygon id="Fill-621" points="11.5176 6.8252 8.0436 6.8252 8.3186 5.4432 11.7916 5.4432"></polygon>
                                    <path d="M14.7998,5.5498 L14.8918,4.9898 L14.9568,4.5888 L16.0918,4.5888 C16.5688,4.5888 16.9398,4.4478 17.2028,4.1708 C17.4708,3.8938 17.6418,3.5058 17.7248,3.0048 C17.8038,2.4968 17.7478,2.1128 17.5568,1.8498 C17.3678,1.5848 17.0418,1.4508 16.5858,1.4508 C16.1918,1.4508 15.8388,1.5888 15.5238,1.8568 C15.2108,2.1238 15.0228,2.4738 14.9568,2.9028 L13.3318,2.9028 L13.3188,2.8578 C13.4278,2.0378 13.8048,1.3688 14.4528,0.8518 C15.1048,0.3338 15.8798,0.0758 16.7848,0.0758 C17.6868,0.0758 18.3898,0.3338 18.8838,0.8448 C19.3808,1.3598 19.5558,2.0788 19.4118,3.0048 C19.3358,3.4648 19.1408,3.8968 18.8288,4.3008 C18.5168,4.7088 18.1088,5.0248 17.6118,5.2438 C18.1088,5.4528 18.4548,5.7688 18.6438,6.1908 C18.8358,6.6158 18.8908,7.0928 18.8118,7.6238 C18.6508,8.6048 18.2288,9.3528 17.5458,9.8738 C16.8628,10.3918 16.0438,10.6528 15.0908,10.6528 C14.2308,10.6528 13.5298,10.3988 12.9948,9.8908 C12.4608,9.3828 12.2788,8.6808 12.4438,7.7848 L12.4568,7.7508 L14.0928,7.7508 C14.0178,8.2278 14.0928,8.6018 14.3128,8.8718 C14.5348,9.1468 14.8748,9.2838 15.3308,9.2838 C15.7828,9.2838 16.1708,9.1398 16.4998,8.8488 C16.8258,8.5608 17.0308,8.1528 17.1168,7.6308 C17.2098,7.0248 17.1578,6.5888 16.9628,6.3278 C16.7678,6.0678 16.4068,5.9368 15.8798,5.9368 L14.7438,5.9368 L14.7998,5.5498 Z" id="Fill-622"></path>
                                    <path d="M25.6865,3.9307 C25.8655,3.0357 25.8725,2.4017 25.7005,2.0207 C25.5335,1.6437 25.2035,1.4517 24.7125,1.4517 C24.2675,1.4517 23.8695,1.6607 23.5235,2.0767 C23.1765,2.4877 22.9225,3.1077 22.7585,3.9307 L22.1855,6.7907 C22.0005,7.6967 21.9975,8.3367 22.1715,8.7147 C22.3465,9.0947 22.6755,9.2847 23.1665,9.2847 C23.6165,9.2847 24.0095,9.0777 24.3495,8.6667 C24.6925,8.2547 24.9465,7.6277 25.1145,6.7907 L25.6865,3.9307 Z M26.8525,6.5437 C26.5645,7.9707 26.0815,9.0127 25.3995,9.6677 C24.7165,10.3267 23.8795,10.6527 22.8925,10.6527 C21.9835,10.6527 21.3005,10.2947 20.8415,9.5817 C20.3815,8.8687 20.2825,7.8577 20.5465,6.5437 L21.0195,4.1917 C21.3045,2.7717 21.7885,1.7297 22.4705,1.0677 C23.1565,0.4057 23.9965,0.0767 24.9875,0.0767 C25.8965,0.0767 26.5785,0.4367 27.0315,1.1537 C27.4875,1.8697 27.5825,2.8847 27.3265,4.1917 L26.8525,6.5437 Z" id="Fill-623"></path>
                                </g>
                                <g id="Aging-Graph">
                                    <path d="M0.4785,66.9932 L244.9995,66.9932 M0.4785,63.1072 L244.9995,63.1072 M0.4785,59.3932 L244.9995,59.3932 M0.4785,55.2792 L244.9995,55.2792 M0.4785,50.8142 L244.9995,50.8142 M0.4785,46.8982 L244.9995,46.8982 M0.4785,43.1012 L244.9995,43.1012 M0.4785,38.8842 L244.9995,38.8842 M0.4785,34.4362 L244.9995,34.4362 M0.4785,30.3622 L244.9995,30.3622 M0.4785,26.7042 L244.9995,26.7042 M0.4785,23.4672 L244.9995,23.4672 M0.4785,20.0682 L244.9995,20.0682 M0.4785,16.6672 L244.9995,16.6672 M0.4785,13.1282 L244.9995,13.1282 M0.4785,9.4102 L244.9995,9.4102 M0.4785,6.0132 L244.9995,6.0132" id="Stroke-657" stroke="#E6E6E6" stroke-width="0.2" stroke-linecap="round" stroke-linejoin="round"></path>
                                    <path d="M97.5518,35.0947 C94.0898,35.0947 91.2788,37.1247 91.2788,39.6247 L91.2788,66.1157 C91.2788,68.6157 94.0898,70.6417 97.5518,70.6417 L125.6638,70.6417 C129.1268,70.6417 131.9388,68.6157 131.9388,66.1157 L131.9388,39.6247 C131.9388,37.1247 129.1268,35.0947 125.6638,35.0947 L97.5518,35.0947 Z" id="Fill-658" fill="#77DF34"></path>
                                    <polygon id="Fill-659" fill="#77DF34" points="91.34 70.642 132 70.642 132 49.998 91.34 49.998"></polygon>
                                    <path d="M20.4697,65.4121 C19.4807,65.4121 18.6747,65.9981 18.6747,66.7221 L18.6747,69.3351 C18.6747,70.0561 19.4807,70.6411 20.4697,70.6411 L57.2007,70.6411 C58.1947,70.6411 58.9997,70.0561 58.9997,69.3351 L58.9997,66.7221 C58.9997,65.9981 58.1947,65.4121 57.2007,65.4121 L20.4697,65.4121 Z" id="Fill-660" fill="#77DF34"></path>
                                    <polygon id="Fill-661" fill="#77DF34" points="18.393 70.642 58.713 70.642 58.713 67.888 18.393 67.888"></polygon>
                                    <path d="M187.6924,9.6133 C185.0684,9.6133 182.9404,11.0973 182.9404,12.9283 L182.9404,67.3253 C182.9404,69.1573 185.0684,70.6413 187.6924,70.6413 L220.2494,70.6413 C222.8724,70.6413 225.0004,69.1573 225.0004,67.3253 L225.0004,12.9283 C225.0004,11.0973 222.8724,9.6133 220.2494,9.6133 L187.6924,9.6133 Z" id="Fill-662" fill="#77DF34"></path>
                                    <polygon id="Fill-663" fill="#77DF34" points="182.94 70.642 225 70.642 225 49.998 182.94 49.998"></polygon>
                                    <path d="M0.4785,71.0156 L244.9995,71.0156 M0.4785,71.0156 L0.4785,0.5426" id="Stroke-664" stroke="#7C7C7C" stroke-width="0.5" stroke-linecap="round" stroke-linejoin="round"></path>
                                </g>
                            </g>
                        </g>
                    </g>
                </g>
            </g>
        </g>
    </g>
</svg>